<svg version="1.0" xmlns="http://www.w3.org/2000/svg" width="800.000000" height="800.000000"
  viewBox="0 0 800.000000 800.000000" preserveAspectRatio="xMidYMid meet">
  <metadata>
    <rdf:RDF xmlns:rdf="http://www.w3.org/1999/02/22-rdf-syntax-ns#" xmlns:rdfs="http://www.w3.org/2000/01/rdf-schema#"
      xmlns:dc="http://purl.org/dc/elements/1.1/">
      <rdf:Description dc:format="image/svg+xml" dc:Label="1" dc:ContentProducer="001191330110MACRLGPT8B00000"
        dc:ProduceID="376240090" dc:ReservedCode1="geAQXw9rqswg0bX74YJIIqgtpuzWCk6x8aetHa8CqT0="
        dc:ContentPropagator="001191330110MACRLGPT8B00000" dc:PropagateID="376240090"
        dc:ReservedCode2="geAQXw9rqswg0bX74YJIIqgtpuzWCk6x8aetHa8CqT0=" />
    </rdf:RDF>
  </metadata>
  <g transform="translate(0.000000,800.000000) scale(0.100000,-0.100000)" fill="#1296db" stroke="none">
    <path
      d="M2167 5889 c-164 -38 -306 -188 -336 -353 -8 -41 -11 -452 -11 -1308 l0 -1248 85 0 85 0 2 1278 3 1277 22 40 c29 54 88 109 143 134 45 20 57 21 1843 21 l1797 0 48 -22 c67 -32 125 -94 151 -162 l21 -57 0 -1254 0 -1255 80 0 80 0 0 1260 c0 883 -3 1275 -11 1312 -32 151 -153 280 -308 328 -62 20 -101 20 -1860 19 -1017 -1 -1812 -5 -1834 -10z" />
    <path
      d="M2340 4190 l0 -1210 85 0 85 0 0 1130 0 1130 1493 -2 1492 -3 3 -1127 2 -1128 80 0 80 0 0 1210 0 1210 -1660 0 -1660 0 0 -1210z" />
    <path
      d="M3450 4640 c-20 -20 -20 -33 -20 -608 l0 -589 23 -21 c13 -12 30 -22 39 -22 24 0 1129 548 1156 572 24 24 29 66 10 90 -13 15 -135 79 -773 403 -181 93 -339 174 -350 182 -28 19 -62 16 -85 -7z m539 -416 c212 -108 388 -198 390 -200 5 -5 -763 -384 -778 -384 -8 0 -11 112 -11 390 0 215 3 390 6 390 4 0 180 -88 393 -196z" />
    <path
      d="M1298 2729 c-11 -6 -18 -23 -19 -42 0 -27 -2 -29 -9 -12 -6 15 -9 6 -9 -32 -1 -29 4 -53 9 -53 6 0 10 -22 10 -49 0 -190 160 -382 360 -432 46 -12 443 -14 2375 -14 l2320 0 65 24 c167 61 270 175 315 347 20 79 20 222 -1 252 l-15 22 -2692 0 c-1810 -1 -2698 -4 -2709 -11z m5262 -182 c0 -42 -32 -121 -68 -169 -23 -30 -57 -59 -96 -80 l-61 -33 -2315 0 c-1903 0 -2323 2 -2361 13 -74 22 -139 78 -176 152 -17 36 -34 82 -38 103 l-6 37 2561 0 2560 0 0 -23z" />
  </g>
</svg>